<svg xmlns="http://www.w3.org/2000/svg" width="800" height="600" viewBox="0 0 211.667 158.75" xmlns:v="https://vecta.io/nano"><g transform="matrix(4.231133 0 0 4.231133 -6.573442 -1075.15544)" stroke="#0f0" fill="none" stroke-width=".125"><g stroke-linejoin="round"><path d="M28.09 261.53l-.465.15-.437-.146m0 0l.447-.144.018-.006.437.145"/><path d="M51.48 257.65l-37.144 13.676"/><path d="M50.154 273.035l1.326-15.386-12.887-3.14-36.94 10.707L4.37 283.23l11.804 7.992 33.98-18.19"/><path d="M1.654 265.215l12.682 6.1 1.838 19.898m10.332-29.166l-.465.15-.437-.146m0 0l.465-.15.437.145m4.602-1.496l-.44.143-.437-.138m0 0l.44-.142.437.137"/><ellipse ry=".127" rx=".346" cy="262.565" cx="24.462"/><ellipse cx="41.25" cy="257.119" rx=".346" ry=".127"/><ellipse cx="13.711" cy="266.053" rx=".346" ry=".127"/><ellipse cx="33.518" cy="259.627" rx=".346" ry=".127"/><path d="M32.593 260.077l-.465.15-.437-.146m0 0l.447-.144.018-.006.437.145"/></g><path d="M28.732 261.182l.92-.303"/><path d="M28.8 260.842l.784.378"/><ellipse cx="29.192" cy="261.031" rx=".866" ry=".317"/><g stroke-linejoin="round"><path d="M26.32 270.338l-.46 1.444m-.003-.002l2.578-.38m.001.002l.326-1.2"/><path d="M29.92 271.26l-1.157-1.056-.167-.032-.024-.005-.4-.08m-1.66-.187l1.66.176-1.842.252m-.793 2.942l2.633-.417m-.001.002l.275-1.453 1.483-.143.947 1.315"/><path d="M23.683 272.258l2.174-.477-.33 1.5m-.197 1.516l2.662-.452m.001 0l.168-1.5 2.706-.28.198.497m-7.762.733l2.225-.524-.197 1.525m-.065 1.55l2.666-.483m-.002-.001l.06-1.518 2.983-.33m-7.893 1.35l2.252-.568-.065 1.55m.063 1.566l2.645-.512"/><path d="M27.976 277.4l-.044-1.537 2.986-.355M23 276.955l2.256-.608.066 1.565m.204 1.568l2.6-.535m-.001.001l-.15-1.546 2.964-.375"/><path d="M23.094 278.555l2.237-.643.195 1.57m.322 1.563l2.53-.552m-.001-.001l-.252-1.546 2.672-.36m-7.467 1.567l2.195-.672.322 1.564m-2.13.692l2.13-.693.447 1.548m.001 0l1.796-.415"/><path d="M26.47 283.064l1.62-.887.588-.372M31.004 278l-.208.576-.964 1.698-1.153 1.52-.302-1.313 1.456-.208m-5.693-9.298l.648-.335 1.715-.74-.183.428-1.53.312m6.185 3.364l.1-.942.215.923m-.362 1.515l.058-1.495.303-.02.098 1.483m-.437 1.547l-.022-1.516.406-.028.052-.004"/><path d="M31.376 275.477l-.135 1.526-.236 1.008-.065-.986.3-.022m-9.748-2.006l-.16 1.044m0 .001l1.747-.677m-.08 1.6l.07-1.6.224-1.57"/><path d="M23.683 272.258l-.38 1.537-1.573.57"/><path d="M22.842 272.543l-1.1 1.822-.24.633-.263 1.114m.03 1.568l1.75-.725.085 1.6"/><path d="M21.102 277.794l.127-1.682.103-.07-.073 1.64m.1 1.64l1.734-.767.237 1.598m-2.23-2.36l.157-.114.1 1.64m.42 1.563l1.55-.73.386 1.585"/><path d="M24.14 270.985l-.457 1.273-.84.287 1.298-1.558m-2.883 8.413l-.156-1.607m.434 2.58l-.28-.973.102-.08.176 1.052.245.5 1.112 1.267m1.28.92l-1.278-.92.824-.413.454 1.333.632.037m1.668-.043l-1.668.042 1.492-.514.177.472"/></g></g><path d="M179.38 10.614c-.06.7-1.937 1.418-4.106 1.308s-3.914-.976-3.854-1.685 2.044-1.808 4.212-1.697 3.807 1.366 3.747 2.075zm-135.4 43.74c.067 1.2-2.237 2.4-5.145 2.655s-5.32-.516-5.386-1.726 2.07-2.74 4.98-2.998 5.485.858 5.552 2.068z" fill="#0f0"/></svg>