<svg xmlns="http://www.w3.org/2000/svg" width="512" height="128" viewBox="0 0 135.467 33.867"><path d="M49.5 8.395c-2.315 0-4.167.775-5.556 2.326-1.382 1.543-2.072 3.616-2.072 6.218s.69 4.674 2.072 6.218c1.39 1.543 3.24 2.315 5.556 2.315 2.308 0 4.153-.772 5.535-2.315 1.382-1.55 2.072-3.623 2.072-6.218 0-2.602-.69-4.674-2.072-6.218-1.382-1.55-3.227-2.326-5.535-2.326zm24.838 0c-2.49 0-4.454.764-5.887 2.293-1.433 1.52-2.15 3.605-2.15 6.25 0 2.638.717 4.722 2.15 6.25 1.433 1.52 3.395 2.282 5.887 2.282.97 0 1.89-.132 2.756-.397a9.07 9.07 0 0 0 2.48-1.191v-2.326c-.75.698-1.55 1.22-2.403 1.565a7.07 7.07 0 0 1-2.701.518c-1.88 0-3.322-.573-4.32-1.72-1-1.154-1.5-2.815-1.5-4.983 0-2.175.5-3.836 1.5-4.983 1-1.154 2.44-1.73 4.32-1.73a7.07 7.07 0 0 1 2.701.518c.853.345 1.654.867 2.403 1.565V9.96a8.68 8.68 0 0 0-2.459-1.168c-.867-.265-1.793-.397-2.778-.397zm-48.595.298l6.284 16.46h2.524l6.273-16.46H38.5L33.285 22.55 28.07 8.693zm34.848 0v16.46h2.227V8.693zm32.326 0v1.34h-8.18v4.873h.527v-4.338h8.18V8.693zm7.163 0l7.014 13.234v-.458l-6.772-12.776zm9.175 0v15.924H106.5l.284.535h3V8.693zm-59.755 1.5c1.617 0 2.896.602 3.836 1.808.948 1.205 1.422 2.848 1.422 4.928 0 2.073-.474 3.712-1.422 4.917-.94 1.205-2.22 1.808-3.836 1.808s-2.903-.603-3.858-1.808c-.948-1.205-1.422-2.844-1.422-4.917 0-2.08.474-3.723 1.422-4.928.955-1.205 2.24-1.808 3.858-1.808zm49.458.644v13.77h-1.635v.535h2.16V11.84zm-6.383 4.592v1.34h-7.838v5.964h.527v-5.43h7.838V15.44zm.54 7.838v1.34h-10.08v.535h10.606v-1.874z" fill="#555753" stroke="#555753" stroke-width=".265"/></svg>